<svg width="22" height="24" viewBox="0 0 22 24" fill="none" xmlns="http://www.w3.org/2000/svg">
<path d="M8.5 4H13.5C13.5 2.61929 12.3807 1.5 11 1.5C9.61929 1.5 8.5 2.61929 8.5 4ZM7 4C7 1.79086 8.79086 0 11 0C13.2091 0 15 1.79086 15 4H21.25C21.6642 4 22 4.33579 22 4.75C22 5.16421 21.6642 5.5 21.25 5.5H19.9401L18.7233 20.1029C18.5398 22.3057 16.6984 24 14.488 24H7.51227C5.3019 24 3.46053 22.3057 3.27695 20.103L2.05991 5.5H0.75C0.335786 5.5 0 5.16421 0 4.75C0 4.33579 0.335786 4 0.75 4H7ZM4.77177 19.9784C4.89055 21.4037 6.08203 22.5 7.51227 22.5H14.488C15.9183 22.5 17.1097 21.4037 17.2285 19.9784L18.4349 5.5H3.56511L4.77177 19.9784ZM8.75 9C9.16421 9 9.5 9.33579 9.5 9.75V18.25C9.5 18.6642 9.16421 19 8.75 19C8.33579 19 8 18.6642 8 18.25V9.75C8 9.33579 8.33579 9 8.75 9ZM14 9.75C14 9.33579 13.6642 9 13.25 9C12.8358 9 12.5 9.33579 12.5 9.75V18.25C12.5 18.6642 12.8358 19 13.25 19C13.6642 19 14 18.6642 14 18.25V9.75Z" fill="#FF0000"/>
</svg>
