<svg width="12" height="12" viewBox="0 0 12 12" fill="none" xmlns="http://www.w3.org/2000/svg">
<path d="M12 6C12 9.31371 9.31371 12 6 12C2.68629 12 0 9.31371 0 6C0 2.68629 2.68629 0 6 0C9.31371 0 12 2.68629 12 6ZM6 5.34729L3.55713 2.90441C3.37688 2.72417 3.08465 2.72417 2.90441 2.90441C2.72417 3.08465 2.72417 3.37688 2.90441 3.55713L5.34729 6L2.90441 8.44287C2.72417 8.62312 2.72417 8.91535 2.90441 9.09559C3.08465 9.27583 3.37688 9.27583 3.55713 9.09559L6 6.65271L8.44287 9.09559C8.62312 9.27583 8.91535 9.27583 9.09559 9.09559C9.27583 8.91535 9.27583 8.62312 9.09559 8.44287L6.65272 6L9.09559 3.55713C9.27583 3.37688 9.27583 3.08465 9.09559 2.90441C8.91535 2.72417 8.62312 2.72417 8.44287 2.90441L6 5.34729Z" fill="#FF0000"/>
</svg>
