<svg width="41" height="41" viewBox="0 0 41 41" fill="none" xmlns="http://www.w3.org/2000/svg">
<path d="M21.5383 13.2945C21.8615 13.0508 22.182 12.8636 22.4688 12.7317C22.5555 14.8588 23.5955 16.4583 24.5965 17.8711C24.6881 18.0003 24.779 18.1277 24.8688 18.2535C25.9522 19.7721 26.8801 21.0725 26.9813 22.794C27.0979 24.7759 26.6036 26.4514 25.6453 27.6176C24.6986 28.7696 23.2385 29.5 21.25 29.5C19.1887 29.5 17.6396 28.9712 16.5585 28.0843C15.4824 27.2015 14.7947 25.9026 14.565 24.2123C14.339 22.5492 14.7415 21.3672 15.1763 20.6092C15.2618 20.4601 15.3491 20.3266 15.4339 20.2084L15.7489 20.8066C16.3 21.8532 17.5784 22.2789 18.6468 21.7716C19.9525 21.1516 20.2311 19.5595 19.8165 18.4416C19.5264 17.6595 19.3721 16.7046 19.7077 15.7484C20.084 14.6763 20.7985 13.8525 21.5383 13.2945ZM15.1564 18.3231L15.1539 18.3249L15.15 18.3279L15.1396 18.3359C15.1316 18.342 15.1215 18.35 15.1094 18.3597C15.0852 18.3792 15.0531 18.4058 15.0144 18.4397C14.937 18.5073 14.8328 18.6042 14.7124 18.731C14.4717 18.9844 14.1637 19.3598 13.8751 19.8629C13.2929 20.8779 12.8037 22.3906 13.0787 24.4142C13.35 26.4107 14.1883 28.0801 15.6071 29.244C17.0208 30.4038 18.9353 31 21.25 31C23.6375 31 25.5425 30.1054 26.8042 28.5699C28.0544 27.0486 28.6122 24.9741 28.4787 22.706C28.3508 20.5302 27.1656 18.8794 26.1188 17.4212C26.0177 17.2804 25.9179 17.1414 25.8205 17.0039C24.6785 15.3922 23.7768 13.9066 23.9959 11.8286C24.0182 11.6172 23.9497 11.4063 23.8075 11.2482C23.6652 11.0902 23.4626 11 23.25 11C22.868 11 22.4309 11.1182 22.0077 11.296C21.5715 11.4792 21.0984 11.7475 20.6351 12.0969C19.7104 12.7944 18.7859 13.8456 18.2924 15.2516C17.8001 16.6541 18.0495 17.9909 18.4101 18.9632C18.6469 19.6017 18.3901 20.233 18.0035 20.4165C17.6616 20.5789 17.2525 20.4427 17.0762 20.1078L16.2689 18.5745C16.1667 18.3805 15.9848 18.2409 15.771 18.1925C15.5572 18.144 15.3322 18.1921 15.1564 18.3231Z" fill="#FF7A00"/>
</svg>
