<svg width="40" height="35" viewBox="0 0 40 35" fill="none" xmlns="http://www.w3.org/2000/svg">
<path d="M3.92256 3.155C8.03551 -0.141255 13.9621 0.152585 17.7289 3.83952L20.0004 6.06295L22.2672 3.84268C26.0335 0.153698 31.9616 -0.141394 36.0756 3.15532C40.9265 7.04246 41.3172 14.2847 36.9128 18.6712L20.8828 34.6358C20.3951 35.1215 19.6064 35.1216 19.1187 34.6358L3.08636 18.6707C-1.31827 14.2845 -0.927957 7.04238 3.92256 3.155ZM15.9801 5.62611C13.1171 2.82368 8.61224 2.60034 5.486 5.10581C1.79914 8.06059 1.50247 13.5653 4.85041 16.8992L20.0007 31.986L35.1486 16.8998C38.4965 13.5657 38.1995 8.06083 34.5123 5.10622C31.3853 2.6004 26.8793 2.82469 24.0165 5.62869L20.8754 8.70538C20.3895 9.18126 19.6123 9.18139 19.1263 8.70567L15.9801 5.62611Z" fill="black"/>
</svg>
