<svg width="48" height="48" viewBox="0 0 48 48" fill="none" xmlns="http://www.w3.org/2000/svg">
<path d="M23.1562 44.13C22.7286 45.2951 21.4205 46.5001 19.7726 46.0114C18.122 45.522 17.0475 44.3433 16.4093 42.9144C15.7855 41.518 15.5519 39.839 15.5381 38.15C15.516 35.4308 16.0639 32.4402 16.7784 29.9999L11.7382 29.9999C8.27622 29.9999 5.76204 26.7077 6.67341 23.3678L10.007 11.1511C11.3222 6.33121 16.2271 3.42671 21.0857 4.59065L35.1557 7.96128C37.7176 8.575 39.7449 10.53 40.4513 13.0679L41.6849 17.5003C42.4436 20.2266 40.8944 22.917 38.4803 24.0248C32.1557 26.927 28.7726 31.1523 26.1226 36.5507C25.2828 38.2614 24.6684 39.9598 23.834 42.2663C23.6243 42.8459 23.4007 43.4638 23.1562 44.13ZM20.5727 43.5862C20.6532 43.5346 20.7521 43.4244 20.8093 43.2687C21.0404 42.6389 21.2556 42.0437 21.4607 41.4764C22.3016 39.1506 22.9729 37.2936 23.8784 35.449C26.709 29.6828 30.4563 24.9562 37.4377 21.7526C38.8971 21.0829 39.6604 19.5502 39.2764 18.1706L38.0428 13.7382C37.58 12.0755 36.2518 10.7946 34.5733 10.3925L20.5033 7.02186C16.9578 6.1725 13.3786 8.292 12.4189 11.8092L9.08523 24.0259C8.60784 25.7754 9.9248 27.4999 11.7382 27.4999L18.5005 27.4999C18.9083 27.4999 19.2904 27.6987 19.5243 28.0327C19.7583 28.3667 19.8146 28.7938 19.6752 29.177C18.7908 31.6091 18.0135 35.1122 18.0381 38.1297C18.0503 39.6411 18.2637 40.9361 18.6919 41.8948C19.1056 42.821 19.6881 43.3788 20.4833 43.6146C20.4956 43.6182 20.5 43.6176 20.5049 43.6168C20.5127 43.6154 20.5361 43.6097 20.5727 43.5862Z" fill="#242424"/>
</svg>
